<svg width="450" height="450" viewBox="0 0 450 450" fill="none" xmlns="http://www.w3.org/2000/svg">
<path d="M178.945 204.057C183.315 200.893 185.424 195.67 185.424 188.488C185.575 185.073 184.872 181.708 183.365 178.644C182.009 176.183 180 174.124 177.539 172.667C174.987 171.12 172.153 170.096 169.202 169.654C165.988 169.051 162.723 168.75 159.509 168.8H124.202V208.828H162.422C169.001 208.878 174.576 207.271 178.945 204.057V204.057ZM184.872 240.218C179.95 236.451 173.371 234.593 165.184 234.593H124.102V281.802H164.381C168.147 281.802 171.613 281.451 174.978 280.748C178.161 280.125 181.196 278.898 183.917 277.132C186.479 275.474 188.538 273.214 190.095 270.301C191.602 267.388 192.355 263.672 192.355 259.202C192.355 250.312 189.844 244.035 184.872 240.218V240.218ZM225 0C100.748 0 0 100.748 0 225C0 349.252 100.748 450 225 450C349.252 450 450 349.252 450 225C450 100.748 349.252 0 225 0ZM268.443 144.09H337.952V161.016H268.443V144.09ZM225 283.661C221.749 289.832 217.106 295.162 211.44 299.23C205.513 303.348 198.934 306.362 191.953 308.119C184.649 310.077 177.115 311.04 169.554 310.982H86.3839V139.671H167.243C175.43 139.671 182.863 140.424 189.643 141.83C196.373 143.237 202.098 145.647 206.92 148.912C211.691 152.176 215.458 156.546 218.119 161.97C220.731 167.344 222.087 174.074 222.087 182.059C222.087 190.698 220.128 197.829 216.211 203.605C212.243 209.381 206.518 214.051 198.733 217.718C209.33 220.731 217.115 226.105 222.238 233.638C227.461 241.272 230.022 250.413 230.022 261.161C230.022 269.9 228.365 277.383 225 283.661ZM365.022 257.143H275.424C275.424 266.886 278.789 276.228 283.862 281.25C288.984 286.222 296.317 288.733 305.91 288.733C312.84 288.733 318.717 286.975 323.739 283.51C328.711 280.045 331.724 276.378 332.829 272.561H362.863C358.041 287.478 350.709 298.125 340.765 304.554C330.921 310.982 318.867 314.196 304.855 314.196C295.061 314.196 286.272 312.589 278.387 309.526C270.804 306.562 263.973 302.042 258.348 296.217C252.802 290.234 248.515 283.197 245.742 275.525C242.679 267.037 241.172 258.097 241.272 249.107C241.272 239.816 242.829 231.177 245.843 223.142C251.618 207.522 263.622 195.017 278.94 188.538C287.126 185.123 295.915 183.415 304.805 183.516C315.352 183.516 324.492 185.525 332.427 189.643C340.067 193.575 346.7 199.212 351.814 206.116C356.886 212.997 360.452 220.831 362.712 229.671C364.872 238.359 365.625 247.5 365.022 257.143V257.143ZM303.75 209.129C298.326 209.129 293.756 210.084 290.24 211.942C286.724 213.8 283.811 216.11 281.602 218.772C279.497 221.342 277.942 224.317 277.031 227.511C276.228 230.173 275.675 232.885 275.474 235.647H330.971C330.167 226.959 327.154 220.53 323.136 216.01C318.917 211.54 312.137 209.129 303.75 209.129V209.129Z" fill="black"/>
</svg>
