<svg width="450" height="450" viewBox="0 0 450 450" fill="none" xmlns="http://www.w3.org/2000/svg">
<path fill-rule="evenodd" clip-rule="evenodd" d="M225 0C100.687 0 0 100.687 0 225C0 324.562 64.4062 408.656 153.844 438.469C165.094 440.438 169.312 433.688 169.312 427.781C169.312 422.438 169.031 404.719 169.031 385.875C112.5 396.281 97.875 372.094 93.375 359.438C90.8438 352.969 79.875 333 70.3125 327.656C62.4375 323.438 51.1875 313.031 70.0312 312.75C87.75 312.469 100.406 329.062 104.625 335.812C124.875 369.844 157.219 360.281 170.156 354.375C172.125 339.75 178.031 329.906 184.5 324.281C134.438 318.656 82.125 299.25 82.125 213.187C82.125 188.719 90.8438 168.469 105.188 152.719C102.938 147.094 95.0625 124.031 107.438 93.0938C107.438 93.0938 126.281 87.1875 169.312 116.156C187.312 111.094 206.437 108.562 225.562 108.562C244.687 108.562 263.812 111.094 281.812 116.156C324.844 86.9063 343.687 93.0938 343.687 93.0938C356.062 124.031 348.188 147.094 345.938 152.719C360.281 168.469 369 188.437 369 213.187C369 299.531 316.406 318.656 266.344 324.281C274.5 331.313 281.531 344.812 281.531 365.906C281.531 396 281.25 420.188 281.25 427.781C281.25 433.688 285.469 440.719 296.719 438.469C341.385 423.389 380.197 394.682 407.694 356.388C435.19 318.095 449.987 272.143 450 225C450 100.687 349.313 0 225 0Z" fill="black"/>
</svg>
