<svg width="450" height="450" viewBox="0 0 450 450" fill="none" xmlns="http://www.w3.org/2000/svg">
<g clip-path="url(#clip0)">
<path d="M295.314 224.999C295.314 243.647 287.906 261.531 274.72 274.717C261.534 287.904 243.65 295.312 225.001 295.312C206.353 295.312 188.469 287.904 175.283 274.717C162.097 261.531 154.689 243.647 154.689 224.999C154.689 220.991 155.111 217.077 155.837 213.28H131.251V306.96C131.251 313.476 136.525 318.749 143.041 318.749H306.986C310.108 318.743 313.101 317.498 315.307 315.288C317.513 313.078 318.751 310.083 318.751 306.96V213.28H294.166C294.892 217.077 295.314 220.991 295.314 224.999V224.999ZM225.001 271.874C231.159 271.872 237.255 270.658 242.943 268.301C248.631 265.943 253.799 262.488 258.152 258.133C262.505 253.778 265.957 248.608 268.312 242.919C270.667 237.23 271.878 231.133 271.876 224.976C271.875 218.818 270.661 212.722 268.303 207.034C265.945 201.346 262.49 196.178 258.135 191.825C253.78 187.472 248.611 184.02 242.922 181.665C237.233 179.31 231.135 178.099 224.978 178.101C212.543 178.104 200.618 183.047 191.828 191.842C183.037 200.637 178.1 212.564 178.103 224.999C178.106 237.434 183.049 249.359 191.844 258.15C200.639 266.94 212.566 271.877 225.001 271.874V271.874ZM281.251 175.78H309.353C311.22 175.78 313.011 175.04 314.333 173.722C315.656 172.404 316.402 170.616 316.408 168.749V140.647C316.408 138.776 315.664 136.982 314.341 135.659C313.018 134.336 311.224 133.593 309.353 133.593H281.251C279.38 133.593 277.586 134.336 276.263 135.659C274.94 136.982 274.197 138.776 274.197 140.647V168.749C274.22 172.616 277.384 175.78 281.251 175.78V175.78ZM225.001 -0.000976562C165.328 -0.000976562 108.098 23.7043 65.9024 65.9C23.7067 108.096 0.00146484 165.325 0.00146484 224.999C0.00146484 284.673 23.7067 341.902 65.9024 384.098C108.098 426.294 165.328 449.999 225.001 449.999C254.549 449.999 283.807 444.179 311.105 432.872C338.404 421.565 363.207 404.991 384.101 384.098C404.994 363.205 421.567 338.401 432.874 311.103C444.182 283.805 450.001 254.546 450.001 224.999C450.001 195.452 444.182 166.194 432.874 138.895C421.567 111.597 404.994 86.7932 384.101 65.9C363.207 45.0068 338.404 28.4334 311.105 17.1261C283.807 5.81882 254.549 -0.000976562 225.001 -0.000976562V-0.000976562ZM342.189 316.147C342.189 330.468 330.47 342.187 316.15 342.187H133.853C119.533 342.187 107.814 330.468 107.814 316.147V133.851C107.814 119.53 119.533 107.812 133.853 107.812H316.15C330.47 107.812 342.189 119.53 342.189 133.851V316.147V316.147Z" fill="black"/>
</g>
<defs>
<clipPath id="clip0">
<rect width="450" height="450" fill="white"/>
</clipPath>
</defs>
</svg>
