<svg width="45" height="45" viewBox="0 0 45 45" fill="none" xmlns="http://www.w3.org/2000/svg">
<path d="M29.25 22.4999C29.25 24.2901 28.5389 26.007 27.273 27.2729C26.0071 28.5387 24.2902 29.2499 22.5 29.2499C20.7098 29.2499 18.9929 28.5387 17.7271 27.2729C16.4612 26.007 15.75 24.2901 15.75 22.4999C15.75 22.1152 15.7905 21.7394 15.8603 21.3749H13.5V30.3682C13.5 30.9937 14.0063 31.4999 14.6318 31.4999H30.3705C30.6703 31.4993 30.9576 31.3798 31.1693 31.1676C31.3811 30.9554 31.5 30.6679 31.5 30.3682V21.3749H29.1398C29.2095 21.7394 29.25 22.1152 29.25 22.4999V22.4999ZM22.5 26.9999C23.0911 26.9998 23.6764 26.8832 24.2224 26.6568C24.7685 26.4305 25.2646 26.0988 25.6825 25.6808C26.1003 25.2627 26.4318 24.7664 26.6578 24.2202C26.8839 23.6741 27.0002 23.0887 27 22.4977C26.9999 21.9066 26.8833 21.3213 26.657 20.7752C26.4306 20.2292 26.099 19.7331 25.6809 19.3152C25.2628 18.8973 24.7665 18.5659 24.2204 18.3398C23.6742 18.1138 23.0889 17.9975 22.4978 17.9977C21.304 17.998 20.1592 18.4725 19.3153 19.3168C18.4714 20.1611 17.9975 21.3061 17.9978 22.4999C17.9981 23.6937 18.4726 24.8384 19.3169 25.6824C20.1613 26.5263 21.3063 27.0002 22.5 26.9999V26.9999ZM27.9 17.7749H30.5978C30.777 17.7749 30.9489 17.7039 31.0759 17.5773C31.2028 17.4508 31.2744 17.2791 31.275 17.0999V14.4022C31.275 14.2225 31.2037 14.0503 31.0767 13.9233C30.9497 13.7963 30.7774 13.7249 30.5978 13.7249H27.9C27.7204 13.7249 27.5481 13.7963 27.4211 13.9233C27.2941 14.0503 27.2228 14.2225 27.2228 14.4022V17.0999C27.225 17.4712 27.5288 17.7749 27.9 17.7749V17.7749ZM22.5 0.899902C16.7713 0.899902 11.2773 3.17561 7.22652 7.2264C3.17573 11.2772 0.900024 16.7712 0.900024 22.4999C0.900024 28.2286 3.17573 33.7226 7.22652 37.7734C11.2773 41.8242 16.7713 44.0999 22.5 44.0999C25.3366 44.0999 28.1454 43.5412 30.766 42.4557C33.3866 41.3702 35.7678 39.7792 37.7735 37.7734C39.7793 35.7677 41.3703 33.3865 42.4558 30.7659C43.5413 28.1452 44.1 25.3365 44.1 22.4999C44.1 19.6634 43.5413 16.8546 42.4558 14.2339C41.3703 11.6133 39.7793 9.23214 37.7735 7.2264C35.7678 5.22065 33.3866 3.62961 30.766 2.5441C28.1454 1.4586 25.3366 0.899902 22.5 0.899902V0.899902ZM33.75 31.2502C33.75 32.6249 32.625 33.7499 31.2503 33.7499H13.7498C12.375 33.7499 11.25 32.6249 11.25 31.2502V13.7497C11.25 12.3749 12.375 11.2499 13.7498 11.2499H31.2503C32.625 11.2499 33.75 12.3749 33.75 13.7497V31.2502V31.2502Z" fill="url(#paint0_linear)"/>
<defs>
<linearGradient id="paint0_linear" x1="22.5" y1="0.899902" x2="22.5" y2="44.0999" gradientUnits="userSpaceOnUse">
<stop stop-color="#4B61D4"/>
<stop offset="0.411458" stop-color="#D32F7D"/>
<stop offset="0.770833" stop-color="#F7722E"/>
<stop offset="1" stop-color="#FFDC81"/>
</linearGradient>
</defs>
</svg>
