<svg width="45" height="45" viewBox="0 0 45 45" fill="none" xmlns="http://www.w3.org/2000/svg">
<path d="M22.5 0.899902C10.5705 0.899902 0.900024 10.5704 0.900024 22.4999C0.900024 34.4294 10.5705 44.0999 22.5 44.0999C34.4295 44.0999 44.1 34.4294 44.1 22.4999C44.1 10.5704 34.4295 0.899902 22.5 0.899902ZM17.2125 31.4527H12.8385V17.3767H17.2125V31.4527ZM14.9985 15.6487C13.617 15.6487 12.7238 14.6699 12.7238 13.4594C12.7238 12.2242 13.644 11.2747 15.0548 11.2747C16.4655 11.2747 17.3295 12.2242 17.3565 13.4594C17.3565 14.6699 16.4655 15.6487 14.9985 15.6487ZM33.1875 31.4527H28.8135V23.6519C28.8135 21.8362 28.179 20.6032 26.5973 20.6032C25.389 20.6032 24.6713 21.4379 24.354 22.2412C24.237 22.5269 24.2078 22.9319 24.2078 23.3347V31.4504H19.8315V21.8654C19.8315 20.1082 19.7753 18.6389 19.7168 17.3744H23.517L23.7173 19.3297H23.805C24.381 18.4117 25.7918 17.0572 28.152 17.0572C31.0298 17.0572 33.1875 18.9854 33.1875 23.1299V31.4527V31.4527Z" fill="#0B65C2"/>
</svg>
