<svg width="450" height="450" viewBox="0 0 450 450" fill="none" xmlns="http://www.w3.org/2000/svg">
<g clip-path="url(#clip0)">
<path d="M225.001 -0.000976562C100.736 -0.000976562 0.00146484 100.733 0.00146484 224.999C0.00146484 349.265 100.736 449.999 225.001 449.999C349.267 449.999 450.001 349.265 450.001 224.999C450.001 100.733 349.267 -0.000976562 225.001 -0.000976562ZM169.923 318.257H124.361V171.632H169.923V318.257ZM146.861 153.632C132.47 153.632 123.166 143.437 123.166 130.827C123.166 117.96 132.751 108.069 147.447 108.069C162.142 108.069 171.142 117.96 171.423 130.827C171.423 143.437 162.142 153.632 146.861 153.632ZM336.33 318.257H290.767V236.999C290.767 218.085 284.158 205.241 267.681 205.241C255.095 205.241 247.619 213.937 244.314 222.304C243.095 225.28 242.791 229.499 242.791 233.694V318.233H197.205V218.39C197.205 200.085 196.619 184.78 196.009 171.608H235.595L237.681 191.976H238.595C244.595 182.413 259.291 168.304 283.876 168.304C313.853 168.304 336.33 188.39 336.33 231.562V318.257V318.257Z" fill="black"/>
</g>
<defs>
<clipPath id="clip0">
<rect width="450" height="450" fill="white"/>
</clipPath>
</defs>
</svg>
