<svg width="45" height="54" viewBox="0 0 45 54" fill="none" xmlns="http://www.w3.org/2000/svg">
<g clip-path="url(#clip0)">
<path d="M45 11.25V4.5H0V11.25H45ZM45 24.75V18H0V24.75H45ZM45 38.25V31.5H0V38.25H45Z" fill="black"/>
<path d="M0.3 54H2.315V48.67L4.59 52.635H6.15L8.425 48.67V54H10.44V44.9H8.36L5.37 50.308L2.38 44.9H0.3V54ZM15.2561 46.785H21.8471V44.9H13.0461V54H21.8471V52.115H15.2561V50.282H20.8201V48.41H15.2561V46.785ZM24.3195 54H26.3345V48.098L29.7795 54H31.8595V44.9H29.8445V50.711L26.3995 44.9H24.3195V54ZM44.7071 44.9H42.4971V49.97C42.4971 51.582 41.5351 52.336 39.7151 52.336H39.3251C37.5051 52.323 36.5431 51.569 36.5431 49.97V44.9H34.3331V49.97C34.3331 52.817 35.8411 54.234 38.8051 54.234H40.2351C43.1991 54.234 44.7071 52.817 44.7071 49.97V44.9Z" fill="black"/>
</g>
<defs>
<clipPath id="clip0">
<rect width="45" height="54" fill="white"/>
</clipPath>
</defs>
</svg>
